<svg xmlns="http://www.w3.org/2000/svg" id="Layer_1" data-name="Layer 1" viewBox="0 0 152.7 139.24">
  <defs>
    <style>
      .cls-1 {
        fill: #ffc52f;
      }

      .cls-2 {
        fill: #54575a;
      }
    </style>
  </defs>
  <g>
    <path class="cls-1" d="m62.04,55.06c2.23,0,4.68.22,6.92.63v-4.83c0-1.04.84-1.87,1.87-1.87h11.98c1.36,0,2.46,1.1,2.46,2.46v9.51c1.92.7,3.32,1.46,4.63,2.42,2.49,1.81,3.86,4.19,3.95,6.8,3.17-.75,6.09-2.02,8.6-3.75.91-.63,2-1.17,2.64-1.64v-18.63l-26.54-29.66c-.81-.91-2.23-.91-3.05,0l-27.02,29.85v11.27c1.92-.49,3.67-1.01,5.69-1.56,2.4-.65,5.06-.99,7.86-.99h0Z"/>
    <g>
      <path class="cls-2" d="m78.67,8.82l30.22,33.77h7.24L78.54.64c-.77-.86-2.11-.86-2.88,0l-14.69,16.18V5.81h-11.83v24.08l-11.38,12.69h7.34l30.57-33.77c.81-.89,2.21-.89,3.01,0Z"/>
      <path class="cls-2" d="m112.55,67.78c-1.76,0-4.12.78-7.13,2.85-5.5,3.78-12.22,5.44-18.37,5.44-5,0-9.61-1.1-12.87-3.05-1.61-.97-1.61-1.29-.67-1.29,1.88,0,7.52,1.3,11.34,1.3,1.88,0,3.32-.32,3.66-1.26,1.56-4.36-4.48-5.76-10.79-8.31-4.62-1.87-10.26-3.28-15.63-3.28-2.24,0-4.45.25-6.5.8-9.32,2.54-16.05,4.46-17.97,5.08v24.46c3.84-1.41,8.28-2.76,10.81-2.76,4.64,0,23.43,5.99,34.06,5.99,1.49,0,2.82-.12,3.93-.38,9.03-2.18,24.7-14.94,28.95-19.3,2.04-2.09,1.23-6.27-2.83-6.27h0Z"/>
    </g>
  </g>
  <g>
    <path class="cls-2" d="m15.38,107.43l-1.91,3.77-.33-.19c0-.08.01-.14.01-.19,0-.27-.23-.55-.68-.86-1.39-.97-3.03-1.45-4.9-1.45-.83,0-1.56.1-2.19.3-.46.16-.83.39-1.12.7s-.43.65-.43,1.02c0,.6.36,1.01,1.09,1.23.38.11,1.18.23,2.42.35l1.84.19c1.1.12,1.98.28,2.66.48.68.2,1.28.49,1.8.86.53.38.95.89,1.26,1.51s.46,1.29.46,2c0,1.12-.36,2.13-1.09,3-.66.8-1.68,1.39-3.06,1.77-1.03.29-2.14.43-3.32.43-2.12,0-4.21-.51-6.28-1.53-.44-.2-.7-.3-.79-.3-.1,0-.26.09-.48.26l-.34-.18,1.74-3.93.34.16v.15c0,.35.17.68.5.97.51.45,1.29.84,2.36,1.17,1.06.33,2.07.49,3.03.49,1.04,0,1.93-.18,2.66-.53.41-.19.73-.45.97-.78.24-.32.36-.66.36-1.01,0-.53-.29-.91-.86-1.14-.4-.16-1.2-.3-2.42-.43l-1.81-.19c-1.21-.13-2.07-.25-2.57-.36-.5-.11-1-.3-1.5-.55-.71-.35-1.27-.88-1.68-1.59-.37-.63-.55-1.36-.55-2.18,0-1.35.47-2.47,1.4-3.36,1.22-1.17,3.05-1.75,5.49-1.75,1.02,0,1.98.1,2.86.31s1.99.59,3.31,1.15c.45.18.73.27.83.27.16,0,.36-.09.57-.27l.33.18Z"/>
    <path class="cls-2" d="m24.44,115.07v4.39h10.3c.23,0,.41-.05.54-.17.12-.11.23-.3.3-.59h.38v4.14h-.38c-.08-.28-.18-.48-.3-.59-.13-.11-.31-.16-.54-.16h-14.55v-.38c.28-.08.48-.18.59-.31s.16-.31.16-.55v-13.55c0-.24-.06-.43-.16-.55s-.31-.23-.59-.3v-.38h14.27c.23,0,.41-.06.54-.17.12-.11.23-.31.31-.58h.38v4.14h-.38c-.08-.28-.18-.47-.31-.58-.13-.11-.31-.17-.54-.17h-10.02v3.8h6.5c.23,0,.41-.05.54-.17.12-.11.23-.3.31-.59h.38v4.05h-.38c-.08-.27-.18-.47-.31-.58-.13-.11-.31-.17-.54-.17h-6.5Z"/>
    <path class="cls-2" d="m45.1,115.56v5.31c0,.24.06.42.17.55s.31.23.58.3v.38h-5v-.38c.28-.08.48-.18.59-.31s.16-.3.16-.54v-13.56c0-.24-.06-.43-.16-.55s-.31-.23-.59-.3v-.38h10.02c1.22,0,2.19.07,2.9.21.72.14,1.34.39,1.87.74.62.41,1.08.96,1.38,1.65.29.67.43,1.39.43,2.16,0,2.61-1.45,4.14-4.35,4.59l3.11,4.42c.55.77.95,1.27,1.2,1.5.25.22.57.35.93.37v.38h-5.79v-.38c.4-.06.6-.2.6-.42,0-.14-.18-.48-.55-1.02l-3.24-4.72h-4.28Zm0-2.64h5.4c.8,0,1.36-.02,1.69-.07s.63-.14.9-.29c.59-.32.89-.9.89-1.74s-.3-1.42-.89-1.74c-.28-.16-.58-.26-.9-.3s-.88-.06-1.7-.06h-5.4v4.2Z"/>
    <path class="cls-2" d="m66.93,115.07v4.39h10.3c.23,0,.41-.05.54-.17.12-.11.23-.3.31-.59h.38v4.14h-.38c-.08-.28-.18-.48-.31-.59s-.3-.16-.54-.16h-14.55v-.38c.28-.08.48-.18.59-.31s.16-.31.16-.55v-13.55c0-.24-.06-.43-.16-.55s-.31-.23-.59-.3v-.38h14.27c.24,0,.42-.06.54-.17s.23-.31.3-.58h.38v4.14h-.38c-.08-.28-.18-.47-.3-.58s-.3-.17-.54-.17h-10.02v3.8h6.5c.23,0,.41-.05.54-.17.12-.11.23-.3.31-.59h.38v4.05h-.38c-.08-.27-.18-.47-.31-.58-.13-.11-.31-.17-.54-.17h-6.5Z"/>
    <path class="cls-2" d="m87.3,111.12v9.74c0,.24.05.43.16.55s.31.23.59.31v.38h-4.71v-.38c.28-.08.48-.18.59-.31.11-.12.16-.31.16-.55v-13.56c0-.23-.05-.42-.16-.54-.11-.12-.31-.23-.59-.3v-.38h5.44v.38c-.34.09-.5.27-.5.54,0,.19.11.39.33.62l8.83,9.19v-9.5c0-.23-.05-.42-.16-.54s-.31-.23-.59-.3v-.38h4.71v.38c-.28.08-.48.18-.59.3s-.16.31-.16.54v13.56c0,.24.05.43.16.55s.31.23.59.31v.38h-5.04v-.38c.33-.07.49-.24.49-.5,0-.16-.19-.43-.57-.82l-8.98-9.27Z"/>
    <path class="cls-2" d="m107.44,120.86v-13.56c0-.23-.05-.42-.16-.54-.11-.12-.31-.23-.59-.3v-.38h5v.38c-.28.07-.48.17-.59.3-.11.13-.17.31-.17.55v13.56c0,.24.06.43.17.56.11.13.31.23.58.3v.38h-5v-.38c.28-.08.48-.18.59-.31.11-.12.16-.31.16-.55Z"/>
    <path class="cls-2" d="m125.38,108.72v12.14c0,.24.05.43.16.55s.3.23.59.31v.38h-5v-.38c.28-.08.48-.18.59-.31s.16-.31.16-.55v-12.14h-4.97c-.24,0-.42.05-.54.16-.12.11-.23.3-.3.59h-.38v-4.14h.38c.09.29.19.48.31.59.12.11.3.16.53.16h13.43c.24,0,.43-.05.55-.16.12-.11.23-.3.3-.59h.38v4.14h-.38c-.08-.29-.18-.48-.3-.59-.12-.11-.31-.16-.55-.16h-4.96Z"/>
    <path class="cls-2" d="m145.56,115.39v5.47c0,.24.06.43.17.55.11.12.31.23.58.31v.38h-5.02v-.38c.28-.08.48-.18.6-.31.12-.12.18-.31.18-.55v-5.47l-5.17-7.28c-.45-.63-.8-1.05-1.05-1.26-.25-.21-.56-.35-.91-.39v-.38h6.32v.38c-.52.09-.79.33-.79.73,0,.14.16.45.48.93l2.89,4.29,2.97-4.29c.32-.46.48-.77.48-.94,0-.18-.07-.33-.21-.46s-.33-.21-.58-.25v-.38h6.19v.38c-.35.05-.65.18-.91.39-.25.21-.6.63-1.05,1.26l-5.17,7.28Z"/>
  </g>
  <g>
    <path class="cls-2" d="m1.82,130.09h.92v3.77h6.45v-3.77h.92v8.92h-.92v-4.3H2.75v4.3h-.92v-8.92Z"/>
    <path class="cls-2" d="m22.01,129.87c2.54,0,4.85,1.54,4.85,4.69s-2.31,4.69-4.85,4.69-4.85-1.54-4.85-4.69,2.31-4.69,4.85-4.69Zm0,8.52c1.96,0,3.85-1.15,3.85-3.84s-1.89-3.84-3.85-3.84-3.85,1.15-3.85,3.84,1.89,3.84,3.85,3.84Z"/>
    <path class="cls-2" d="m43.2,130.09h1.31v8.92h-.92v-7.71h-.02l-3.94,7.71h-.85l-3.92-7.72h-.02v7.72h-.92v-8.92h1.35l3.97,7.76,3.97-7.76Z"/>
    <path class="cls-2" d="m52.05,130.09h7.1v.85h-6.17v3.02h5.95v.85h-5.95v3.35h6.27v.85h-7.2v-8.92Z"/>
    <path class="cls-2" d="m75.56,130.09h4.86c1.51,0,2.9.54,2.9,2.41,0,.95-.59,1.9-1.75,2.16v.02c1.26.2,1.52,1.01,1.59,2.47.03.56.1,1.65.31,1.85h-1c-.16-.19-.22-.85-.24-1.82-.02-1.58-.62-2.1-2.16-2.1h-3.59v3.92h-.92v-8.92Zm.92,4.15h3.91c1.01,0,1.92-.38,1.92-1.74s-.99-1.56-1.84-1.56h-4v3.3Z"/>
    <path class="cls-2" d="m90.56,130.09h7.1v.85h-6.17v3.02h5.95v.85h-5.95v3.35h6.27v.85h-7.2v-8.92Z"/>
    <path class="cls-2" d="m104.86,130.09h4.81c1.38,0,2.69.69,2.69,2.57,0,1.69-1.11,2.6-3.1,2.6h-3.47v3.75h-.92v-8.92Zm.92,4.32h3.57c1.55,0,2-.71,2-1.75,0-1.34-.75-1.72-1.81-1.72h-3.76v3.47Z"/>
    <path class="cls-2" d="m124.8,136.3h-4.7l-1.21,2.71h-1l4.05-8.92h1.08l4.05,8.92h-1.07l-1.19-2.71Zm-2.34-5.29l-1.99,4.44h3.95l-1.96-4.44Z"/>
    <path class="cls-2" d="m133.65,130.09h.92v8.92h-.92v-8.92Z"/>
    <path class="cls-2" d="m142.21,130.09h4.86c1.51,0,2.9.54,2.9,2.41,0,.95-.59,1.9-1.75,2.16v.02c1.26.2,1.53,1.01,1.59,2.47.02.56.1,1.65.31,1.85h-1c-.16-.19-.23-.85-.24-1.82-.03-1.58-.62-2.1-2.16-2.1h-3.59v3.92h-.92v-8.92Zm.92,4.15h3.91c1.01,0,1.92-.38,1.92-1.74s-.99-1.56-1.84-1.56h-4v3.3Z"/>
  </g>
</svg>